<svg width="26" height="35" viewBox="0 0 26 35" fill="none" xmlns="http://www.w3.org/2000/svg">
<path d="M15.125 9.28125V0.25H1.84375C0.914062 0.25 0.25 0.980469 0.25 1.84375V32.6562C0.25 33.5859 0.914062 34.25 1.84375 34.25H24.1562C25.0195 34.25 25.75 33.5859 25.75 32.6562V10.875H16.7188C15.7891 10.875 15.125 10.2109 15.125 9.28125ZM20.1719 23.3594L13.7969 29.7344C13.332 30.1328 12.6016 30.1328 12.1367 29.7344L5.76172 23.3594C5.09766 22.6953 5.5625 21.5 6.49219 21.5H10.875V16.1875C10.875 15.6562 11.3398 15.125 11.9375 15.125H14.0625C14.5938 15.125 15.125 15.6562 15.125 16.1875V21.5H19.4414C20.3711 21.5 20.8359 22.6953 20.1719 23.3594ZM25.2852 7.22266L18.7773 0.714844C18.4453 0.449219 18.0469 0.25 17.6484 0.25H17.25V8.75H25.75V8.35156C25.75 7.95312 25.5508 7.55469 25.2852 7.22266Z" fill="#08415C"/>
</svg>